<svg width="200" height="200" viewBox="0 0 200 200" xmlns="http://www.w3.org/2000/svg">
  <style>
    .line {
      stroke: #00e5ff;
      stroke-width: 1;
      stroke-opacity: 0.3;
      fill: none;
    }
    .dot {
      fill: #00e5ff;
      fill-opacity: 0.4;
    }
    .node {
      fill: #00e5ff;
      fill-opacity: 0.2;
    }
  </style>

  <!-- Circuit paths -->
  <path class="line" d="M10,10 L60,10 L60,50 L100,50 L100,90 L140,90 L140,130 L180,130 L180,170" />
  <path class="line" d="M30,10 L30,50 L70,50 L70,90 L110,90 L110,130 L150,130 L150,170" />
  <path class="line" d="M50,10 L50,170" />
  <path class="line" d="M90,10 L90,170" />
  <path class="line" d="M130,10 L130,50 L170,50 L170,170" />
  <path class="line" d="M10,30 L170,30" />
  <path class="line" d="M10,70 L170,70" />
  <path class="line" d="M10,110 L170,110" />
  <path class="line" d="M10,150 L170,150" />
  
  <!-- Nodes -->
  <circle class="node" cx="30" cy="30" r="4" />
  <circle class="node" cx="30" cy="70" r="4" />
  <circle class="node" cx="30" cy="110" r="4" />
  <circle class="node" cx="30" cy="150" r="4" />
  
  <circle class="node" cx="70" cy="30" r="4" />
  <circle class="node" cx="70" cy="70" r="4" />
  <circle class="node" cx="70" cy="110" r="4" />
  <circle class="node" cx="70" cy="150" r="4" />
  
  <circle class="node" cx="110" cy="30" r="4" />
  <circle class="node" cx="110" cy="70" r="4" />
  <circle class="node" cx="110" cy="110" r="4" />
  <circle class="node" cx="110" cy="150" r="4" />
  
  <circle class="node" cx="150" cy="30" r="4" />
  <circle class="node" cx="150" cy="70" r="4" />
  <circle class="node" cx="150" cy="110" r="4" />
  <circle class="node" cx="150" cy="150" r="4" />
  
  <!-- Connection dots -->
  <circle class="dot" cx="30" cy="30" r="1.5" />
  <circle class="dot" cx="50" cy="30" r="1.5" />
  <circle class="dot" cx="70" cy="30" r="1.5" />
  <circle class="dot" cx="90" cy="30" r="1.5" />
  <circle class="dot" cx="110" cy="30" r="1.5" />
  <circle class="dot" cx="130" cy="30" r="1.5" />
  <circle class="dot" cx="150" cy="30" r="1.5" />
  
  <circle class="dot" cx="30" cy="50" r="1.5" />
  <circle class="dot" cx="50" cy="50" r="1.5" />
  <circle class="dot" cx="70" cy="50" r="1.5" />
  <circle class="dot" cx="90" cy="50" r="1.5" />
  <circle class="dot" cx="110" cy="50" r="1.5" />
  <circle class="dot" cx="130" cy="50" r="1.5" />
  
  <circle class="dot" cx="30" cy="70" r="1.5" />
  <circle class="dot" cx="50" cy="70" r="1.5" />
  <circle class="dot" cx="70" cy="70" r="1.5" />
  <circle class="dot" cx="90" cy="70" r="1.5" />
  <circle class="dot" cx="110" cy="70" r="1.5" />
  <circle class="dot" cx="130" cy="70" r="1.5" />
  <circle class="dot" cx="150" cy="70" r="1.5" />
  <circle class="dot" cx="170" cy="70" r="1.5" />
  
  <circle class="dot" cx="50" cy="90" r="1.5" />
  <circle class="dot" cx="70" cy="90" r="1.5" />
  <circle class="dot" cx="90" cy="90" r="1.5" />
  <circle class="dot" cx="110" cy="90" r="1.5" />
  <circle class="dot" cx="130" cy="90" r="1.5" />
  
  <circle class="dot" cx="30" cy="110" r="1.5" />
  <circle class="dot" cx="50" cy="110" r="1.5" />
  <circle class="dot" cx="70" cy="110" r="1.5" />
  <circle class="dot" cx="90" cy="110" r="1.5" />
  <circle class="dot" cx="110" cy="110" r="1.5" />
  <circle class="dot" cx="130" cy="110" r="1.5" />
  <circle class="dot" cx="150" cy="110" r="1.5" />
  
  <circle class="dot" cx="30" cy="130" r="1.5" />
  <circle class="dot" cx="70" cy="130" r="1.5" />
  <circle class="dot" cx="90" cy="130" r="1.5" />
  <circle class="dot" cx="130" cy="130" r="1.5" />
  <circle class="dot" cx="170" cy="130" r="1.5" />
  
  <circle class="dot" cx="30" cy="150" r="1.5" />
  <circle class="dot" cx="50" cy="150" r="1.5" />
  <circle class="dot" cx="70" cy="150" r="1.5" />
  <circle class="dot" cx="90" cy="150" r="1.5" />
  <circle class="dot" cx="110" cy="150" r="1.5" />
  <circle class="dot" cx="130" cy="150" r="1.5" />
  <circle class="dot" cx="150" cy="150" r="1.5" />
</svg> 